<svg width="1440" height="125" viewBox="0 0 1440 125" fill="none" xmlns="http://www.w3.org/2000/svg">
<path fill-rule="evenodd" clip-rule="evenodd" d="M1440 13.2227L1426.8 22.0377C1413.6 30.8527 1387.2 48.4827 1359.6 55.094C1333.2 61.7052 1306.8 57.2977 1280.4 66.1127C1252.8 74.9277 1226.4 96.9652 1200 94.7615C1173.6 92.5577 1147.2 66.1127 1119.6 59.5014C1093.2 52.8902 1066.8 66.1127 1040.4 81.539C1012.8 96.9652 986.4 114.595 960 116.799C933.6 119.003 907.2 105.78 879.6 96.9652C853.2 88.1502 826.8 83.7427 800.4 90.354C772.8 96.9652 746.4 114.595 720 103.576C693.6 92.5577 667.2 52.8901 639.6 48.4826C613.2 44.0751 586.8 74.9277 560.4 79.3352C532.8 83.7427 506.4 61.7051 480 48.4826C453.6 35.2601 427.2 30.8526 399.6 39.6676C373.2 48.4826 346.8 70.5201 320.4 88.1502C292.8 105.78 266.4 119.003 240 123.41C213.6 127.818 187.2 123.41 159.6 105.78C133.2 88.1501 106.8 57.2976 80.4 41.8713C52.8 26.445 26.4 26.445 13.2 26.445L-4.86045e-05 26.445L-4.62926e-05 8.80332e-06L13.2 9.9573e-06C26.4 1.11113e-05 52.8 1.34192e-05 80.4 1.58321e-05C106.8 1.81401e-05 133.2 2.0448e-05 159.6 2.2756e-05C187.2 2.51689e-05 213.6 2.74768e-05 240 2.97848e-05C266.4 3.20928e-05 292.8 3.44007e-05 320.4 3.68136e-05C346.8 3.91215e-05 373.2 4.14295e-05 399.6 4.37375e-05C427.2 4.61503e-05 453.6 4.84583e-05 480 5.07663e-05C506.4 5.30742e-05 532.8 5.53822e-05 560.4 5.7795e-05C586.8 6.0103e-05 613.2 6.2411e-05 639.6 6.47189e-05C667.2 6.71318e-05 693.6 6.94398e-05 720 7.17477e-05C746.4 7.40557e-05 772.8 7.63636e-05 800.4 7.87765e-05C826.8 8.10845e-05 853.2 8.33924e-05 879.6 8.57004e-05C907.2 8.81133e-05 933.6 9.04212e-05 960 9.27292e-05C986.4 9.50372e-05 1012.8 9.73451e-05 1040.4 9.9758e-05C1066.8 0.000102066 1093.2 0.000104374 1119.6 0.000106682C1147.2 0.000109095 1173.6 0.000111403 1200 0.000113711C1226.4 0.000116019 1252.8 0.000118327 1280.4 0.000120739C1306.8 0.000123047 1333.2 0.000125355 1359.6 0.000127663C1387.2 0.000130076 1413.6 0.000132384 1426.8 0.000133538L1440 0.000134692L1440 13.2227Z" fill="#1A6C9B"/>
</svg>
