<svg width="41" height="42" viewBox="0 0 41 42" fill="none" xmlns="http://www.w3.org/2000/svg">
<rect x="0.5" width="40" height="42" rx="20" fill="black"/>
<path d="M28.4268 12.6658C26.4512 10.5986 23.8171 9.4502 21.0366 9.4502C15.2561 9.4502 10.5732 14.3502 10.5732 20.3986C10.5732 22.3127 11.0854 24.2268 11.9634 25.8346L10.5 31.5002L16.061 29.9689C17.5976 30.8111 19.2805 31.2705 21.0366 31.2705C26.8171 31.2705 31.5 26.3705 31.5 20.3221C31.4268 17.4893 30.4024 14.733 28.4268 12.6658ZM26.0854 24.3033C25.8659 24.9158 24.8415 25.5283 24.3293 25.6049C23.8902 25.6814 23.3049 25.6814 22.7195 25.5283C22.3537 25.3752 21.8415 25.2221 21.2561 24.9158C18.622 23.7674 16.939 21.0111 16.7927 20.7814C16.6463 20.6283 15.6951 19.3268 15.6951 17.9486C15.6951 16.5705 16.3537 15.958 16.5732 15.6518C16.7927 15.3455 17.0854 15.3455 17.3049 15.3455C17.4512 15.3455 17.6707 15.3455 17.8171 15.3455C17.9634 15.3455 18.1829 15.2689 18.4024 15.8049C18.622 16.3408 19.1341 17.7189 19.2073 17.7955C19.2805 17.9486 19.2805 18.1018 19.2073 18.2549C19.1341 18.408 19.061 18.5611 18.9146 18.7143C18.7683 18.8674 18.6219 19.0971 18.5488 19.1736C18.4024 19.3268 18.2561 19.4799 18.4024 19.7096C18.5488 20.0158 19.061 20.858 19.8659 21.6236C20.8902 22.5424 21.6951 22.8486 21.9878 23.0018C22.2805 23.1549 22.4268 23.0783 22.5732 22.9252C22.7195 22.7721 23.2317 22.1596 23.378 21.8533C23.5244 21.5471 23.7439 21.6236 23.9634 21.7002C24.1829 21.7768 25.5 22.4658 25.7195 22.6189C26.0122 22.7721 26.1585 22.8486 26.2317 22.9252C26.3049 23.1549 26.3049 23.6908 26.0854 24.3033Z" fill="white"/>
</svg>
