<svg width="41" height="42" viewBox="0 0 41 42" fill="none" xmlns="http://www.w3.org/2000/svg">
<rect x="0.5" width="40" height="42" rx="20" fill="black"/>
<path d="M20.5 12.3976C23.1506 12.3976 23.5121 12.3976 24.5964 12.3976C25.5602 12.3976 26.0422 12.6506 26.4036 12.7771C26.8855 13.0301 27.247 13.1566 27.6084 13.5361C27.9699 13.9157 28.2108 14.2952 28.3313 14.8012C28.4518 15.1807 28.5723 15.6867 28.6928 16.6988C28.6928 17.8374 28.6928 18.0904 28.6928 21C28.6928 23.9096 28.6928 24.1627 28.6928 25.3012C28.6928 26.3133 28.4518 26.8193 28.3313 27.1988C28.0904 27.7048 27.9699 28.0843 27.6084 28.4639C27.247 28.8434 26.8855 29.0964 26.4036 29.2229C26.0422 29.3494 25.5602 29.4759 24.5964 29.6024C23.5121 29.6024 23.2711 29.6024 20.5 29.6024C17.7289 29.6024 17.488 29.6024 16.4036 29.6024C15.4398 29.6024 14.9578 29.3494 14.5964 29.2229C14.1145 28.9699 13.753 28.8434 13.3916 28.4639C13.0301 28.0843 12.7892 27.7048 12.6687 27.1988C12.5482 26.8193 12.4277 26.3133 12.3072 25.3012C12.3072 24.1627 12.3072 23.9096 12.3072 21C12.3072 18.0904 12.3072 17.8374 12.3072 16.6988C12.3072 15.6867 12.5482 15.1807 12.6687 14.8012C12.9096 14.2952 13.0301 13.9157 13.3916 13.5361C13.753 13.1566 14.1145 12.9036 14.5964 12.7771C14.9578 12.6506 15.4398 12.5241 16.4036 12.3976C17.488 12.3976 17.8494 12.3976 20.5 12.3976ZM20.5 10.5C17.7289 10.5 17.488 10.5 16.4036 10.5C15.3193 10.5 14.5964 10.753 13.994 11.006C13.3916 11.259 12.7892 11.6386 12.1867 12.2711C11.5843 12.9036 11.3434 13.4096 10.9819 14.1687C10.741 14.8012 10.6205 15.5602 10.5 16.6988C10.5 17.8374 10.5 18.2169 10.5 21C10.5 23.9096 10.5 24.1627 10.5 25.3012C10.5 26.4398 10.741 27.1988 10.9819 27.8313C11.2229 28.4639 11.5843 29.0964 12.1867 29.7289C12.7892 30.3614 13.2711 30.6145 13.994 30.994C14.5964 31.247 15.3193 31.3735 16.4036 31.5C17.488 31.5 17.8494 31.5 20.5 31.5C23.1506 31.5 23.5121 31.5 24.5964 31.5C25.6807 31.5 26.4036 31.247 27.006 30.994C27.6084 30.741 28.2108 30.3614 28.8133 29.7289C29.4157 29.0964 29.6566 28.5904 30.0181 27.8313C30.259 27.1988 30.3795 26.4398 30.5 25.3012C30.5 24.1627 30.5 23.7831 30.5 21C30.5 18.2169 30.5 17.8374 30.5 16.6988C30.5 15.5602 30.259 14.8012 30.0181 14.1687C29.7771 13.5361 29.4157 12.9036 28.8133 12.2711C28.2108 11.6386 27.7289 11.3855 27.006 11.006C26.4036 10.753 25.6807 10.6265 24.5964 10.5C23.5121 10.5 23.2711 10.5 20.5 10.5Z" fill="white"/>
<path d="M20.5 15.5602C17.6084 15.5602 15.3193 17.9639 15.3193 21C15.3193 24.0361 17.6084 26.4398 20.5 26.4398C23.3916 26.4398 25.6807 24.0361 25.6807 21C25.6807 17.9639 23.3916 15.5602 20.5 15.5602ZM20.5 24.5422C18.6928 24.5422 17.1265 23.0241 17.1265 21C17.1265 19.1024 18.5723 17.4578 20.5 17.4578C22.3072 17.4578 23.8735 18.9759 23.8735 21C23.8735 22.8976 22.3072 24.5422 20.5 24.5422Z" fill="white"/>
<path d="M25.8012 16.6988C26.4666 16.6988 27.006 16.1324 27.006 15.4337C27.006 14.7351 26.4666 14.1687 25.8012 14.1687C25.1358 14.1687 24.5964 14.7351 24.5964 15.4337C24.5964 16.1324 25.1358 16.6988 25.8012 16.6988Z" fill="white"/>
</svg>
